<svg xmlns="http://www.w3.org/2000/svg" xml:lang="en" height="117.2pt" width="215.21599999999998pt" viewBox="-197.608 -22.6 215.21599999999998 117.2"><circle cx="-8.28" cy="36.0" r="4.32" style="stroke:black;fill:none;stroke-width:2.0;" /><circle cx="-123.3" cy="-0.0" r="4.32" style="stroke:black;fill:none;stroke-width:2.0;" /><circle cx="-123.3" cy="72.0" r="4.32" style="stroke:black;fill:none;stroke-width:2.0;" /><path d="M -30.6,54.0 L -29.446736040347172,53.96301706950605 L -28.298211089678894,53.852220248818426 L -27.1591446833753,53.668064825839174 L -26.03421748962887,53.41130753470253 L -24.928052075574826,53.08300344619204 L -23.84519391217127,52.68450163222839 L -22.790092695883956,52.217439622243546 L -21.767084063929126,51.68373667422101 L -20.780371778210124,51.08558588805314 L -19.83401045115812,50.425445193623226 L -18.931888884459806,49.70602725064442 L -18.077714089137253,48.9302883017591 L -17.274996052644326,48.10141602470371 L -16.527033315575473,47.2228164334572 L -15.83689941725479,46.298099882199054 L -15.207430265903778,45.33106622958945 L -14.641212485286,44.325689224335036 L -14.140572785715374,43.286100176203085 L -13.70756840310431,42.21657097958354 L -13.343978645340105,41.12149655935858 L -13.05129758072718,40.00537681121366 L -12.830727898539898,38.872798110600826 L -12.683175966914435,37.72841446633828 L -12.609248108387625,36.5769283962898 L -12.609248108387625,35.42307160371021 L -12.683175966914435,34.271585533661735 L -12.830727898539898,33.127201889399174 L -13.05129758072718,31.994623188786342 L -13.343978645340105,30.878503440641417 L -13.70756840310431,29.783429020416463 L -14.140572785715374,28.713899823796915 L -14.641212485286,27.674310775664964 L -15.207430265903778,26.66893377041055 L -15.83689941725479,25.70190011780095 L -16.527033315575473,24.7771835665428 L -17.274996052644326,23.8985839752963 L -18.077714089137245,23.0697116982409 L -18.931888884459806,22.293972749355586 L -19.834010451158107,21.57455480637678 L -20.780371778210124,20.914414111946872 L -21.767084063929126,20.31626332577899 L -22.790092695883956,19.782560377756457 L -23.84519391217127,19.31549836777161 L -24.928052075574826,18.916996553807966 L -26.03421748962887,18.58869246529747 L -27.1591446833753,18.331935174160826 L -28.298211089678887,18.14777975118157 L -29.446736040347165,18.036982930493945 L -30.6,18.0 L -30.6,18.0 L -54.0,18.0 L -54.0,36.0 L -54.0,54.0 L -30.6,54.0" style="stroke:black;fill:none;stroke-width:2.0;stroke-linecap:round;stroke-linejoin:round;" /><path d="M -66.60000000000001,45.0 L -54.0,45.0" style="stroke:black;fill:none;stroke-width:2.0;stroke-linecap:round;stroke-linejoin:round;" /><path d="M -66.60000000000001,27.0 L -54.0,27.0" style="stroke:black;fill:none;stroke-width:2.0;stroke-linecap:round;stroke-linejoin:round;" /><path d="M -3.9600000000000035,36.0 L 0.0,36.0" style="stroke:black;fill:none;stroke-width:2.0;stroke-linecap:round;stroke-linejoin:round;" /><path d="M -180.0,-0.0 L -151.02,-0.0 M -118.97999999999999,-0.0 L -90.0,-0.0" style="stroke:black;fill:none;stroke-width:2.0;stroke-linecap:round;stroke-linejoin:round;" /><path d="M -151.02,-18.0 L -127.62,-0.0 L -151.02,18.0 L -151.02,-18.0" style="stroke:black;fill:none;stroke-width:2.0;stroke-linecap:round;stroke-linejoin:round;" /><path d="M -66.60000000000001,27.0 L -90.0,27.0 L -90.0,-0.0" style="stroke:black;fill:none;stroke-width:2;stroke-linecap:round;stroke-linejoin:round;" /><path d="M -180.0,72.0 L -151.02,72.0 M -118.97999999999999,72.0 L -90.0,72.0" style="stroke:black;fill:none;stroke-width:2.0;stroke-linecap:round;stroke-linejoin:round;" /><path d="M -151.02,54.0 L -127.62,72.0 L -151.02,90.0 L -151.02,54.0" style="stroke:black;fill:none;stroke-width:2.0;stroke-linecap:round;stroke-linejoin:round;" /><path d="M -66.60000000000001,45.0 L -90.0,45.0 L -90.0,72.0" style="stroke:black;fill:none;stroke-width:2;stroke-linecap:round;stroke-linejoin:round;" /><text x="3.600000000000003" y="30.4" fill="black" font-size="14.0" font-family="sans" text-anchor="start"><tspan x="3.600000000000003" dy="14.0">B</tspan></text><text x="-183.6" y="-5.6000000000000005" fill="black" font-size="14.0" font-family="sans" text-anchor="end"><tspan x="-183.6" dy="14.0">C</tspan></text><text x="-183.6" y="66.39999999999999" fill="black" font-size="14.0" font-family="sans" text-anchor="end"><tspan x="-183.6" dy="14.0">A</tspan></text></svg>