<?xml version="1.0" encoding="utf-8" standalone="no"?>
<!DOCTYPE svg PUBLIC "-//W3C//DTD SVG 1.1//EN"
  "http://www.w3.org/Graphics/SVG/1.1/DTD/svg11.dtd">
<svg xmlns:xlink="http://www.w3.org/1999/xlink" width="305.376pt" height="81.36pt" viewBox="0 0 305.376 81.36" xmlns="http://www.w3.org/2000/svg" version="1.1">
 <metadata>
  <rdf:RDF xmlns:dc="http://purl.org/dc/elements/1.1/" xmlns:cc="http://creativecommons.org/ns#" xmlns:rdf="http://www.w3.org/1999/02/22-rdf-syntax-ns#">
   <cc:Work>
    <dc:type rdf:resource="http://purl.org/dc/dcmitype/StillImage"/>
    <dc:date>2024-09-29T00:12:16.964006</dc:date>
    <dc:format>image/svg+xml</dc:format>
    <dc:creator>
     <cc:Agent>
      <dc:title>Matplotlib v3.9.2, https://matplotlib.org/</dc:title>
     </cc:Agent>
    </dc:creator>
   </cc:Work>
  </rdf:RDF>
 </metadata>
 <defs>
  <style type="text/css">*{stroke-linejoin: round; stroke-linecap: butt}</style>
 </defs>
 <g id="figure_1">
  <g id="patch_1">
   <path d="M 0 81.36 
L 305.376 81.36 
L 305.376 0 
L 0 0 
L 0 81.36 
z
" style="fill: none"/>
  </g>
  <g id="axes_1">
   <g id="patch_2">
    <path d="M 279.408 63 
C 280.553677 63 281.652585 62.544818 282.462701 61.734701 
C 283.272818 60.924585 283.728 59.825677 283.728 58.68 
C 283.728 57.534323 283.272818 56.435415 282.462701 55.625299 
C 281.652585 54.815182 280.553677 54.36 279.408 54.36 
C 278.262323 54.36 277.163415 54.815182 276.353299 55.625299 
C 275.543182 56.435415 275.088 57.534323 275.088 58.68 
C 275.088 59.825677 275.543182 60.924585 276.353299 61.734701 
C 277.163415 62.544818 278.262323 63 279.408 63 
L 279.408 63 
z
" clip-path="url(#peb694d03b1)" style="fill: none; stroke: #000000; stroke-width: 2; stroke-linejoin: miter"/>
   </g>
   <g id="patch_3">
    <path d="M 189.408 27 
C 190.553677 27 191.652585 26.544818 192.462701 25.734701 
C 193.272818 24.924585 193.728 23.825677 193.728 22.68 
C 193.728 21.534323 193.272818 20.435415 192.462701 19.625299 
C 191.652585 18.815182 190.553677 18.36 189.408 18.36 
C 188.262323 18.36 187.163415 18.815182 186.353299 19.625299 
C 185.543182 20.435415 185.088 21.534323 185.088 22.68 
C 185.088 23.825677 185.543182 24.924585 186.353299 25.734701 
C 187.163415 26.544818 188.262323 27 189.408 27 
L 189.408 27 
z
" clip-path="url(#peb694d03b1)" style="fill: none; stroke: #000000; stroke-width: 2; stroke-linejoin: miter"/>
   </g>
   <g id="patch_4">
    <path d="M 74.388 63 
C 75.533677 63 76.632585 62.544818 77.442701 61.734701 
C 78.252818 60.924585 78.708 59.825677 78.708 58.68 
C 78.708 57.534323 78.252818 56.435415 77.442701 55.625299 
C 76.632585 54.815182 75.533677 54.36 74.388 54.36 
C 73.242323 54.36 72.143415 54.815182 71.333299 55.625299 
C 70.523182 56.435415 70.068 57.534323 70.068 58.68 
C 70.068 59.825677 70.523182 60.924585 71.333299 61.734701 
C 72.143415 62.544818 73.242323 63 74.388 63 
L 74.388 63 
z
" clip-path="url(#peb694d03b1)" style="fill: none; stroke: #000000; stroke-width: 2; stroke-linejoin: miter"/>
   </g>
   <g id="line2d_1">
    <path d="M 257.088 76.68 
L 258.241264 76.643017 
L 259.389789 76.53222 
L 260.528855 76.348065 
L 261.653783 76.091308 
L 262.759948 75.763003 
L 263.842806 75.364502 
L 264.897907 74.89744 
L 265.920916 74.363737 
L 266.907628 73.765586 
L 267.85399 73.105445 
L 268.756111 72.386027 
L 269.610286 71.610288 
L 270.413004 70.781416 
L 271.160967 69.902816 
L 271.851101 68.9781 
L 272.48057 68.011066 
L 273.046788 67.005689 
L 273.547427 65.9661 
L 273.980432 64.896571 
L 274.344021 63.801497 
L 274.636702 62.685377 
L 274.857272 61.552798 
L 275.004824 60.408414 
L 275.078752 59.256928 
L 275.078752 58.103072 
L 275.004824 56.951586 
L 274.857272 55.807202 
L 274.636702 54.674623 
L 274.344021 53.558503 
L 273.980432 52.463429 
L 273.547427 51.3939 
L 273.046788 50.354311 
L 272.48057 49.348934 
L 271.851101 48.3819 
L 271.160967 47.457184 
L 270.413004 46.578584 
L 269.610286 45.749712 
L 268.756111 44.973973 
L 267.85399 44.254555 
L 266.907628 43.594414 
L 265.920916 42.996263 
L 264.897907 42.46256 
L 263.842806 41.995498 
L 262.759948 41.596997 
L 261.653783 41.268692 
L 260.528855 41.011935 
L 259.389789 40.82778 
L 258.241264 40.716983 
L 257.088 40.68 
L 257.088 40.68 
L 233.688 40.68 
L 233.688 58.68 
L 233.688 76.68 
L 257.088 76.68 
" clip-path="url(#peb694d03b1)" style="fill: none; stroke: #000000; stroke-width: 2; stroke-linecap: round"/>
   </g>
   <g id="line2d_2">
    <path d="M 221.088 67.68 
L 233.688 67.68 
" clip-path="url(#peb694d03b1)" style="fill: none; stroke: #000000; stroke-width: 2; stroke-linecap: round"/>
   </g>
   <g id="line2d_3">
    <path d="M 221.088 49.68 
L 233.688 49.68 
" clip-path="url(#peb694d03b1)" style="fill: none; stroke: #000000; stroke-width: 2; stroke-linecap: round"/>
   </g>
   <g id="line2d_4">
    <path d="M 283.728 58.68 
L 287.688 58.68 
" clip-path="url(#peb694d03b1)" style="fill: none; stroke: #000000; stroke-width: 2; stroke-linecap: round"/>
   </g>
   <g id="line2d_5">
    <path d="M 167.088 40.68 
L 168.241264 40.643017 
L 169.389789 40.53222 
L 170.528855 40.348065 
L 171.653783 40.091308 
L 172.759948 39.763003 
L 173.842806 39.364502 
L 174.897907 38.89744 
L 175.920916 38.363737 
L 176.907628 37.765586 
L 177.85399 37.105445 
L 178.756111 36.386027 
L 179.610286 35.610288 
L 180.413004 34.781416 
L 181.160967 33.902816 
L 181.851101 32.9781 
L 182.48057 32.011066 
L 183.046788 31.005689 
L 183.547427 29.9661 
L 183.980432 28.896571 
L 184.344021 27.801497 
L 184.636702 26.685377 
L 184.857272 25.552798 
L 185.004824 24.408414 
L 185.078752 23.256928 
L 185.078752 22.103072 
L 185.004824 20.951586 
L 184.857272 19.807202 
L 184.636702 18.674623 
L 184.344021 17.558503 
L 183.980432 16.463429 
L 183.547427 15.3939 
L 183.046788 14.354311 
L 182.48057 13.348934 
L 181.851101 12.3819 
L 181.160967 11.457184 
L 180.413004 10.578584 
L 179.610286 9.749712 
L 178.756111 8.973973 
L 177.85399 8.254555 
L 176.907628 7.594414 
L 175.920916 6.996263 
L 174.897907 6.46256 
L 173.842806 5.995498 
L 172.759948 5.596997 
L 171.653783 5.268692 
L 170.528855 5.011935 
L 169.389789 4.82778 
L 168.241264 4.716983 
L 167.088 4.68 
L 167.088 4.68 
L 143.688 4.68 
L 143.688 22.68 
L 143.688 40.68 
L 167.088 40.68 
" clip-path="url(#peb694d03b1)" style="fill: none; stroke: #000000; stroke-width: 2; stroke-linecap: round"/>
   </g>
   <g id="line2d_6">
    <path d="M 131.088 31.68 
L 143.688 31.68 
" clip-path="url(#peb694d03b1)" style="fill: none; stroke: #000000; stroke-width: 2; stroke-linecap: round"/>
   </g>
   <g id="line2d_7">
    <path d="M 131.088 13.68 
L 143.688 13.68 
" clip-path="url(#peb694d03b1)" style="fill: none; stroke: #000000; stroke-width: 2; stroke-linecap: round"/>
   </g>
   <g id="line2d_8">
    <path d="M 193.728 22.68 
L 197.688 22.68 
" clip-path="url(#peb694d03b1)" style="fill: none; stroke: #000000; stroke-width: 2; stroke-linecap: round"/>
   </g>
   <g id="line2d_9">
    <path d="M 17.688 58.68 
L 46.668 58.68 
M 78.708 58.68 
L 107.688 58.68 
" clip-path="url(#peb694d03b1)" style="fill: none; stroke: #000000; stroke-width: 2; stroke-linecap: round"/>
   </g>
   <g id="line2d_10">
    <path d="M 46.668 40.68 
L 70.068 58.68 
L 46.668 76.68 
L 46.668 40.68 
" clip-path="url(#peb694d03b1)" style="fill: none; stroke: #000000; stroke-width: 2; stroke-linecap: round"/>
   </g>
   <g id="line2d_11">
    <path d="M 131.088 31.68 
L 107.688 31.68 
L 107.688 58.68 
" clip-path="url(#peb694d03b1)" style="fill: none; stroke: #000000; stroke-width: 2; stroke-linecap: round"/>
   </g>
   <g id="line2d_12">
    <path d="M 221.088 49.68 
L 197.688 49.68 
L 197.688 22.68 
" clip-path="url(#peb694d03b1)" style="fill: none; stroke: #000000; stroke-width: 2; stroke-linecap: round"/>
   </g>
   <g id="text_1">
    <!-- A -->
    <g transform="translate(291.288 62.543125) scale(0.14 -0.14)">
     <defs>
      <path id="DejaVuSans-41" d="M 2188 4044 
L 1331 1722 
L 3047 1722 
L 2188 4044 
z
M 1831 4666 
L 2547 4666 
L 4325 0 
L 3669 0 
L 3244 1197 
L 1141 1197 
L 716 0 
L 50 0 
L 1831 4666 
z
" transform="scale(0.015625)"/>
     </defs>
     <use xlink:href="#DejaVuSans-41"/>
    </g>
   </g>
   <g id="text_2">
    <!-- B -->
    <g transform="translate(207.882687 71.543125) scale(0.14 -0.14)">
     <defs>
      <path id="DejaVuSans-42" d="M 1259 2228 
L 1259 519 
L 2272 519 
Q 2781 519 3026 730 
Q 3272 941 3272 1375 
Q 3272 1813 3026 2020 
Q 2781 2228 2272 2228 
L 1259 2228 
z
M 1259 4147 
L 1259 2741 
L 2194 2741 
Q 2656 2741 2882 2914 
Q 3109 3088 3109 3444 
Q 3109 3797 2882 3972 
Q 2656 4147 2194 4147 
L 1259 4147 
z
M 628 4666 
L 2241 4666 
Q 2963 4666 3353 4366 
Q 3744 4066 3744 3513 
Q 3744 3084 3544 2831 
Q 3344 2578 2956 2516 
Q 3422 2416 3680 2098 
Q 3938 1781 3938 1306 
Q 3938 681 3513 340 
Q 3088 0 2303 0 
L 628 0 
L 628 4666 
z
" transform="scale(0.015625)"/>
     </defs>
     <use xlink:href="#DejaVuSans-42"/>
    </g>
   </g>
   <g id="text_3">
    <!-- C -->
    <g transform="translate(117.712062 17.543125) scale(0.14 -0.14)">
     <defs>
      <path id="DejaVuSans-43" d="M 4122 4306 
L 4122 3641 
Q 3803 3938 3442 4084 
Q 3081 4231 2675 4231 
Q 1875 4231 1450 3742 
Q 1025 3253 1025 2328 
Q 1025 1406 1450 917 
Q 1875 428 2675 428 
Q 3081 428 3442 575 
Q 3803 722 4122 1019 
L 4122 359 
Q 3791 134 3420 21 
Q 3050 -91 2638 -91 
Q 1578 -91 968 557 
Q 359 1206 359 2328 
Q 359 3453 968 4101 
Q 1578 4750 2638 4750 
Q 3056 4750 3426 4639 
Q 3797 4528 4122 4306 
z
" transform="scale(0.015625)"/>
     </defs>
     <use xlink:href="#DejaVuSans-43"/>
    </g>
   </g>
   <g id="text_4">
    <!-- D -->
    <g transform="translate(3.308 62.543125) scale(0.14 -0.14)">
     <defs>
      <path id="DejaVuSans-44" d="M 1259 4147 
L 1259 519 
L 2022 519 
Q 2988 519 3436 956 
Q 3884 1394 3884 2338 
Q 3884 3275 3436 3711 
Q 2988 4147 2022 4147 
L 1259 4147 
z
M 628 4666 
L 1925 4666 
Q 3281 4666 3915 4102 
Q 4550 3538 4550 2338 
Q 4550 1131 3912 565 
Q 3275 0 1925 0 
L 628 0 
L 628 4666 
z
" transform="scale(0.015625)"/>
     </defs>
     <use xlink:href="#DejaVuSans-44"/>
    </g>
   </g>
  </g>
 </g>
 <defs>
  <clipPath id="peb694d03b1">
   <rect x="0" y="-0" width="305.376" height="81.36"/>
  </clipPath>
 </defs>
</svg>
