<?xml version="1.0" encoding="utf-8" standalone="no"?>
<!DOCTYPE svg PUBLIC "-//W3C//DTD SVG 1.1//EN"
  "http://www.w3.org/Graphics/SVG/1.1/DTD/svg11.dtd">
<svg xmlns:xlink="http://www.w3.org/1999/xlink" width="103.776pt" height="44.64pt" viewBox="0 0 103.776 44.64" xmlns="http://www.w3.org/2000/svg" version="1.1">
 <metadata>
  <rdf:RDF xmlns:dc="http://purl.org/dc/elements/1.1/" xmlns:cc="http://creativecommons.org/ns#" xmlns:rdf="http://www.w3.org/1999/02/22-rdf-syntax-ns#">
   <cc:Work>
    <dc:type rdf:resource="http://purl.org/dc/dcmitype/StillImage"/>
    <dc:date>2024-09-29T01:39:20.589027</dc:date>
    <dc:format>image/svg+xml</dc:format>
    <dc:creator>
     <cc:Agent>
      <dc:title>Matplotlib v3.9.2, https://matplotlib.org/</dc:title>
     </cc:Agent>
    </dc:creator>
   </cc:Work>
  </rdf:RDF>
 </metadata>
 <defs>
  <style type="text/css">*{stroke-linejoin: round; stroke-linecap: butt}</style>
 </defs>
 <g id="figure_1">
  <g id="patch_1">
   <path d="M 0 44.64 
L 103.776 44.64 
L 103.776 0 
L 0 0 
L 0 44.64 
z
" style="fill: none"/>
  </g>
  <g id="axes_1">
   <g id="line2d_1">
    <path d="M 30.288 39.96 
L 49.830857 39.893878 
L 51.888 39.6 
L 53.945143 39.07102 
L 56.002286 38.306939 
L 58.059429 37.307755 
L 60.116571 36.073469 
L 62.173714 34.604082 
L 64.230857 32.899592 
L 66.802286 30.438367 
L 69.373714 27.609796 
L 71.945143 24.413878 
L 73.488 22.32 
L 73.488 22.32 
L 70.916571 18.903673 
L 68.345143 15.854694 
L 65.773714 13.173061 
L 63.202286 10.858776 
L 61.145143 9.271837 
L 59.088 7.92 
L 57.030857 6.803265 
L 54.973714 5.921633 
L 52.916571 5.275102 
L 50.859429 4.863673 
L 48.802286 4.687347 
L 48.288 4.68 
L 30.288 4.68 
L 30.288 4.68 
L 32.2752 6.84 
L 34.0032 9 
L 35.472 11.16 
L 36.6816 13.32 
L 37.632 15.48 
L 38.3232 17.64 
L 38.7552 19.8 
L 38.928 21.96 
L 38.8416 24.12 
L 38.496 26.28 
L 37.8912 28.44 
L 37.0272 30.6 
L 35.904 32.76 
L 34.5216 34.92 
L 32.88 37.08 
L 30.9792 39.24 
L 30.288 39.96 
L 30.288 39.96 
" clip-path="url(#pc963c4167a)" style="fill: none; stroke: #000000; stroke-width: 2; stroke-linecap: round"/>
   </g>
   <g id="line2d_2">
    <path d="M 17.688 31.32 
L 36.6816 31.32 
" clip-path="url(#pc963c4167a)" style="fill: none; stroke: #000000; stroke-width: 2; stroke-linecap: round"/>
   </g>
   <g id="line2d_3">
    <path d="M 17.688 13.32 
L 36.6816 13.32 
" clip-path="url(#pc963c4167a)" style="fill: none; stroke: #000000; stroke-width: 2; stroke-linecap: round"/>
   </g>
   <g id="line2d_4">
    <path d="M 73.488 22.32 
L 86.088 22.32 
" clip-path="url(#pc963c4167a)" style="fill: none; stroke: #000000; stroke-width: 2; stroke-linecap: round"/>
   </g>
   <g id="text_1">
    <!-- C -->
    <g transform="translate(89.688 26.183125) scale(0.14 -0.14)">
     <defs>
      <path id="DejaVuSans-43" d="M 4122 4306 
L 4122 3641 
Q 3803 3938 3442 4084 
Q 3081 4231 2675 4231 
Q 1875 4231 1450 3742 
Q 1025 3253 1025 2328 
Q 1025 1406 1450 917 
Q 1875 428 2675 428 
Q 3081 428 3442 575 
Q 3803 722 4122 1019 
L 4122 359 
Q 3791 134 3420 21 
Q 3050 -91 2638 -91 
Q 1578 -91 968 557 
Q 359 1206 359 2328 
Q 359 3453 968 4101 
Q 1578 4750 2638 4750 
Q 3056 4750 3426 4639 
Q 3797 4528 4122 4306 
z
" transform="scale(0.015625)"/>
     </defs>
     <use xlink:href="#DejaVuSans-43"/>
    </g>
   </g>
   <g id="text_2">
    <!-- B -->
    <g transform="translate(4.482687 17.183125) scale(0.14 -0.14)">
     <defs>
      <path id="DejaVuSans-42" d="M 1259 2228 
L 1259 519 
L 2272 519 
Q 2781 519 3026 730 
Q 3272 941 3272 1375 
Q 3272 1813 3026 2020 
Q 2781 2228 2272 2228 
L 1259 2228 
z
M 1259 4147 
L 1259 2741 
L 2194 2741 
Q 2656 2741 2882 2914 
Q 3109 3088 3109 3444 
Q 3109 3797 2882 3972 
Q 2656 4147 2194 4147 
L 1259 4147 
z
M 628 4666 
L 2241 4666 
Q 2963 4666 3353 4366 
Q 3744 4066 3744 3513 
Q 3744 3084 3544 2831 
Q 3344 2578 2956 2516 
Q 3422 2416 3680 2098 
Q 3938 1781 3938 1306 
Q 3938 681 3513 340 
Q 3088 0 2303 0 
L 628 0 
L 628 4666 
z
" transform="scale(0.015625)"/>
     </defs>
     <use xlink:href="#DejaVuSans-42"/>
    </g>
   </g>
   <g id="text_3">
    <!-- A -->
    <g transform="translate(4.511125 35.183125) scale(0.14 -0.14)">
     <defs>
      <path id="DejaVuSans-41" d="M 2188 4044 
L 1331 1722 
L 3047 1722 
L 2188 4044 
z
M 1831 4666 
L 2547 4666 
L 4325 0 
L 3669 0 
L 3244 1197 
L 1141 1197 
L 716 0 
L 50 0 
L 1831 4666 
z
" transform="scale(0.015625)"/>
     </defs>
     <use xlink:href="#DejaVuSans-41"/>
    </g>
   </g>
  </g>
 </g>
 <defs>
  <clipPath id="pc963c4167a">
   <rect x="0" y="0" width="103.776" height="44.64"/>
  </clipPath>
 </defs>
</svg>
